HIERARCHY
ROOT mixamorig:Hips
{
	OFFSET -0.000008 104.274872 1.554316
	CHANNELS 6 Xposition Yposition Zposition Xrotation Yrotation Zrotation
	JOINT mixamorig:Spine
	{
		OFFSET -0.000005 10.181595 0.131519
		CHANNELS 6 Xposition Yposition Zposition Xrotation Yrotation Zrotation
		JOINT mixamorig:Spine1
		{
			OFFSET -0.000000 9.893959 -1.470707
			CHANNELS 6 Xposition Yposition Zposition Xrotation Yrotation Zrotation
			JOINT mixamorig:Spine2
			{
				OFFSET -0.000000 9.220757 -1.370641
				CHANNELS 6 Xposition Yposition Zposition Xrotation Yrotation Zrotation
				JOINT mixamorig:Neck
				{
					OFFSET 0.000001 16.740417 -2.049036
					CHANNELS 6 Xposition Yposition Zposition Xrotation Yrotation Zrotation
					JOINT mixamorig:Head
					{
						OFFSET 0.000000 9.617874 1.685006
						CHANNELS 6 Xposition Yposition Zposition Xrotation Yrotation Zrotation
						JOINT mixamorig:HeadTop_End
						{
							OFFSET 0.000002 22.037354 7.501101
							CHANNELS 6 Xposition Yposition Zposition Xrotation Yrotation Zrotation
							End Site
							{
								OFFSET 0.000168 2310.654297 -282.823242
							}
						}
					}
				}
				JOINT mixamorig:RightShoulder
				{
					OFFSET -4.569970 11.014908 -2.160885
					CHANNELS 6 Xposition Yposition Zposition Xrotation Yrotation Zrotation
					JOINT mixamorig:RightArm
					{
						OFFSET -10.592851 -0.524811 -2.232101
						CHANNELS 6 Xposition Yposition Zposition Xrotation Yrotation Zrotation
						JOINT mixamorig:RightForeArm
						{
							OFFSET -27.841511 0.000031 -0.000004
							CHANNELS 6 Xposition Yposition Zposition Xrotation Yrotation Zrotation
							JOINT mixamorig:RightHand
							{
								OFFSET -28.328831 -0.000015 0.000015
								CHANNELS 6 Xposition Yposition Zposition Xrotation Yrotation Zrotation
								JOINT mixamorig:RightHandThumb1
								{
									OFFSET -2.464806 -1.573990 2.681852
									CHANNELS 6 Xposition Yposition Zposition Xrotation Yrotation Zrotation
									JOINT mixamorig:RightHandThumb2
									{
										OFFSET -3.215179 -1.872803 1.924282
										CHANNELS 6 Xposition Yposition Zposition Xrotation Yrotation Zrotation
										JOINT mixamorig:RightHandThumb3
										{
											OFFSET -2.654831 -1.527969 1.512609
											CHANNELS 6 Xposition Yposition Zposition Xrotation Yrotation Zrotation
											JOINT mixamorig:RightHandThumb4
											{
												OFFSET -2.018814 -1.152008 1.108052
												CHANNELS 6 Xposition Yposition Zposition Xrotation Yrotation Zrotation
												End Site
												{
													OFFSET -188.809540 -114.533607 132.431396
												}
											}
										}
									}
								}
								JOINT mixamorig:RightHandIndex1
								{
									OFFSET -9.108284 -0.517868 2.259835
									CHANNELS 6 Xposition Yposition Zposition Xrotation Yrotation Zrotation
									JOINT mixamorig:RightHandIndex2
									{
										OFFSET -3.699989 0.000000 0.001215
										CHANNELS 6 Xposition Yposition Zposition Xrotation Yrotation Zrotation
										JOINT mixamorig:RightHandIndex3
										{
											OFFSET -2.850006 0.000031 -0.000522
											CHANNELS 6 Xposition Yposition Zposition Xrotation Yrotation Zrotation
											JOINT mixamorig:RightHandIndex4
											{
												OFFSET -2.772186 -0.000015 -0.000020
												CHANNELS 6 Xposition Yposition Zposition Xrotation Yrotation Zrotation
												End Site
												{
													OFFSET -277.218445 0.000000 -0.050231
												}
											}
										}
									}
								}
								JOINT mixamorig:RightHandMiddle1
								{
									OFFSET -9.532516 -0.000031 -0.000023
									CHANNELS 6 Xposition Yposition Zposition Xrotation Yrotation Zrotation
									JOINT mixamorig:RightHandMiddle2
									{
										OFFSET -3.700005 -0.000015 0.003713
										CHANNELS 6 Xposition Yposition Zposition Xrotation Yrotation Zrotation
										JOINT mixamorig:RightHandMiddle3
										{
											OFFSET -2.949974 0.000015 -0.002054
											CHANNELS 6 Xposition Yposition Zposition Xrotation Yrotation Zrotation
											JOINT mixamorig:RightHandMiddle4
											{
												OFFSET -2.946640 0.000000 -0.000156
												CHANNELS 6 Xposition Yposition Zposition Xrotation Yrotation Zrotation
												End Site
												{
													OFFSET -294.664337 0.000000 -0.113670
												}
											}
										}
									}
								}
								JOINT mixamorig:RightHandRing1
								{
									OFFSET -9.103600 -0.043076 -1.865134
									CHANNELS 6 Xposition Yposition Zposition Xrotation Yrotation Zrotation
									JOINT mixamorig:RightHandRing2
									{
										OFFSET -3.379288 0.000000 -0.001055
										CHANNELS 6 Xposition Yposition Zposition Xrotation Yrotation Zrotation
										JOINT mixamorig:RightHandRing3
										{
											OFFSET -2.889687 -0.000015 0.000379
											CHANNELS 6 Xposition Yposition Zposition Xrotation Yrotation Zrotation
											JOINT mixamorig:RightHandRing4
											{
												OFFSET -2.638809 -0.000015 0.000941
												CHANNELS 6 Xposition Yposition Zposition Xrotation Yrotation Zrotation
												End Site
												{
													OFFSET -263.880371 0.000000 0.516020
												}
											}
										}
									}
								}
								JOINT mixamorig:RightHandPinky1
								{
									OFFSET -8.076683 -0.486710 -3.806280
									CHANNELS 6 Xposition Yposition Zposition Xrotation Yrotation Zrotation
									JOINT mixamorig:RightHandPinky2
									{
										OFFSET -3.600014 -0.000015 -0.003747
										CHANNELS 6 Xposition Yposition Zposition Xrotation Yrotation Zrotation
										JOINT mixamorig:RightHandPinky3
										{
											OFFSET -2.099983 0.000000 -0.005739
											CHANNELS 6 Xposition Yposition Zposition Xrotation Yrotation Zrotation
											JOINT mixamorig:RightHandPinky4
											{
												OFFSET -2.115768 -0.000031 -0.003680
												CHANNELS 6 Xposition Yposition Zposition Xrotation Yrotation Zrotation
												End Site
												{
													OFFSET -211.577087 0.000000 -0.350686
												}
											}
										}
									}
								}
							}
						}
					}
				}
				JOINT mixamorig:LeftShoulder
				{
					OFFSET 4.570447 11.014725 -2.160855
					CHANNELS 6 Xposition Yposition Zposition Xrotation Yrotation Zrotation
					JOINT mixamorig:LeftArm
					{
						OFFSET 10.592371 -0.524597 -2.232119
						CHANNELS 6 Xposition Yposition Zposition Xrotation Yrotation Zrotation
						JOINT mixamorig:LeftForeArm
						{
							OFFSET 27.841532 -0.000031 0.000026
							CHANNELS 6 Xposition Yposition Zposition Xrotation Yrotation Zrotation
							JOINT mixamorig:LeftHand
							{
								OFFSET 28.328846 -0.000061 0.000022
								CHANNELS 6 Xposition Yposition Zposition Xrotation Yrotation Zrotation
								JOINT mixamorig:LeftHandThumb1
								{
									OFFSET 2.466141 -1.576172 2.681732
									CHANNELS 6 Xposition Yposition Zposition Xrotation Yrotation Zrotation
									JOINT mixamorig:LeftHandThumb2
									{
										OFFSET 3.217812 -1.872070 1.916482
										CHANNELS 6 Xposition Yposition Zposition Xrotation Yrotation Zrotation
										JOINT mixamorig:LeftHandThumb3
										{
											OFFSET 2.656029 -1.528778 1.514513
											CHANNELS 6 Xposition Yposition Zposition Xrotation Yrotation Zrotation
											JOINT mixamorig:LeftHandThumb4
											{
												OFFSET 2.020889 -1.154053 1.115139
												CHANNELS 6 Xposition Yposition Zposition Xrotation Yrotation Zrotation
												End Site
												{
													OFFSET 190.885437 -115.081749 130.048782
												}
											}
										}
									}
								}
								JOINT mixamorig:LeftHandIndex1
								{
									OFFSET 9.109314 -0.518021 2.259871
									CHANNELS 6 Xposition Yposition Zposition Xrotation Yrotation Zrotation
									JOINT mixamorig:LeftHandIndex2
									{
										OFFSET 3.699989 0.000000 -0.000322
										CHANNELS 6 Xposition Yposition Zposition Xrotation Yrotation Zrotation
										JOINT mixamorig:LeftHandIndex3
										{
											OFFSET 2.850006 0.000000 0.000352
											CHANNELS 6 Xposition Yposition Zposition Xrotation Yrotation Zrotation
											JOINT mixamorig:LeftHandIndex4
											{
												OFFSET 2.774864 -0.000031 -0.000027
												CHANNELS 6 Xposition Yposition Zposition Xrotation Yrotation Zrotation
												End Site
												{
													OFFSET 277.486267 0.000000 -0.009857
												}
											}
										}
									}
								}
								JOINT mixamorig:LeftHandMiddle1
								{
									OFFSET 9.533394 0.000061 0.000044
									CHANNELS 6 Xposition Yposition Zposition Xrotation Yrotation Zrotation
									JOINT mixamorig:LeftHandMiddle2
									{
										OFFSET 3.699989 -0.000015 -0.000231
										CHANNELS 6 Xposition Yposition Zposition Xrotation Yrotation Zrotation
										JOINT mixamorig:LeftHandMiddle3
										{
											OFFSET 2.949997 -0.000015 -0.000059
											CHANNELS 6 Xposition Yposition Zposition Xrotation Yrotation Zrotation
											JOINT mixamorig:LeftHandMiddle4
											{
												OFFSET 2.952896 0.000031 0.000063
												CHANNELS 6 Xposition Yposition Zposition Xrotation Yrotation Zrotation
												End Site
												{
													OFFSET 295.289337 0.000000 0.022810
												}
											}
										}
									}
								}
								JOINT mixamorig:LeftHandRing1
								{
									OFFSET 9.104523 -0.042999 -1.865074
									CHANNELS 6 Xposition Yposition Zposition Xrotation Yrotation Zrotation
									JOINT mixamorig:LeftHandRing2
									{
										OFFSET 3.150009 -0.000031 0.000043
										CHANNELS 6 Xposition Yposition Zposition Xrotation Yrotation Zrotation
										JOINT mixamorig:LeftHandRing3
										{
											OFFSET 2.949982 -0.000015 0.000040
											CHANNELS 6 Xposition Yposition Zposition Xrotation Yrotation Zrotation
											JOINT mixamorig:LeftHandRing4
											{
												OFFSET 2.644348 0.000000 0.000057
												CHANNELS 6 Xposition Yposition Zposition Xrotation Yrotation Zrotation
												End Site
												{
													OFFSET 264.434631 0.000000 0.012105
												}
											}
										}
									}
								}
								JOINT mixamorig:LeftHandPinky1
								{
									OFFSET 8.077789 -0.486847 -3.806259
									CHANNELS 6 Xposition Yposition Zposition Xrotation Yrotation Zrotation
									JOINT mixamorig:LeftHandPinky2
									{
										OFFSET 3.599953 0.000031 0.014727
										CHANNELS 6 Xposition Yposition Zposition Xrotation Yrotation Zrotation
										JOINT mixamorig:LeftHandPinky3
										{
											OFFSET 2.100021 0.000015 0.007705
											CHANNELS 6 Xposition Yposition Zposition Xrotation Yrotation Zrotation
											JOINT mixamorig:LeftHandPinky4
											{
												OFFSET 2.125504 0.000031 0.007517
												CHANNELS 6 Xposition Yposition Zposition Xrotation Yrotation Zrotation
												End Site
												{
													OFFSET 212.550781 0.000000 0.625752
												}
											}
										}
									}
								}
							}
						}
					}
				}
			}
		}
	}
	JOINT mixamorig:RightUpLeg
	{
		OFFSET -8.207787 -6.751648 -1.599560
		CHANNELS 6 Xposition Yposition Zposition Xrotation Yrotation Zrotation
		JOINT mixamorig:RightLeg
		{
			OFFSET -0.000002 -44.370117 0.345942
			CHANNELS 6 Xposition Yposition Zposition Xrotation Yrotation Zrotation
			JOINT mixamorig:RightFoot
			{
				OFFSET 0.000003 -44.423679 -3.043532
				CHANNELS 6 Xposition Yposition Zposition Xrotation Yrotation Zrotation
				JOINT mixamorig:RightToeBase
				{
					OFFSET -0.000002 -8.728671 10.710558
					CHANNELS 6 Xposition Yposition Zposition Xrotation Yrotation Zrotation
					JOINT mixamorig:RightToe_End
					{
						OFFSET -0.000001 -0.000679 9.278119
						CHANNELS 6 Xposition Yposition Zposition Xrotation Yrotation Zrotation
						End Site
						{
							OFFSET 0.000000 -0.067690 927.812134
						}
					}
				}
			}
		}
	}
	JOINT mixamorig:LeftUpLeg
	{
		OFFSET 8.207793 -6.751686 -1.599556
		CHANNELS 6 Xposition Yposition Zposition Xrotation Yrotation Zrotation
		JOINT mixamorig:LeftLeg
		{
			OFFSET -0.000004 -44.370014 0.346954
			CHANNELS 6 Xposition Yposition Zposition Xrotation Yrotation Zrotation
			JOINT mixamorig:LeftFoot
			{
				OFFSET -0.000001 -44.423672 -3.044401
				CHANNELS 6 Xposition Yposition Zposition Xrotation Yrotation Zrotation
				JOINT mixamorig:LeftToeBase
				{
					OFFSET -0.000002 -8.728669 10.710558
					CHANNELS 6 Xposition Yposition Zposition Xrotation Yrotation Zrotation
					JOINT mixamorig:LeftToe_End
					{
						OFFSET -0.000003 -0.000679 9.278133
						CHANNELS 6 Xposition Yposition Zposition Xrotation Yrotation Zrotation
						End Site
						{
							OFFSET 0.000000 -0.068021 927.813477
						}
					}
				}
			}
		}
	}
}
MOTION
Frames: 3
Frame Time: 0.033333
0.000006 104.270477 1.554256 0.000010 0.000003 -0.000113 -0.000005 10.181587 0.131522 0.000001 -0.000003 0.000084 -0.000000 9.893967 -1.470711 0.000001 0.000000 -0.000000 -0.000000 9.220802 -1.370642 0.000000 -0.000000 -0.000000 0.000001 16.740433 -2.049030 0.000000 -0.000000 -0.000000 0.000000 9.617859 1.685014 0.000000 0.000000 0.000000 0.000002 22.037384 7.501101 0.000000 -0.000000 0.000000 -4.569968 11.014880 -2.160881 0.000008 0.000001 -0.000038 -10.592870 -0.524681 -2.232021 72.825123 7.946214 -5.865441 -27.841532 0.000017 0.000530 -58.862372 117.927082 86.311755 -28.328821 0.000020 0.000025 -0.000320 -0.000045 0.000007 -2.464486 -1.573971 2.682418 -19.793878 -157.107601 48.884139 -3.215284 -1.872611 1.924663 160.240978 31.686405 0.686551 -2.654953 -1.527907 1.513095 149.622752 25.747916 -42.575660 -2.018833 -1.152012 1.108058 -0.000005 0.000002 0.000002 -9.108403 -0.517569 2.260171 104.352948 18.619649 -23.907846 -3.700056 0.000335 0.001541 103.006622 12.713559 -15.917877 -2.850072 0.000370 -0.000235 99.989605 9.132134 -10.870516 -2.772172 -0.000003 -0.000013 -0.000001 -0.000000 -0.000002 -9.532596 0.000269 0.000234 91.701922 16.763149 -17.408610 -3.700063 0.000342 0.003968 93.633506 9.713355 -10.248400 -2.950040 0.000346 -0.001821 92.442731 9.447022 -9.849415 -2.946627 0.000001 -0.000159 0.000000 -0.000001 0.000001 -9.103695 -0.042763 -1.864881 87.682150 17.983697 -17.238185 -3.379327 0.000308 -0.000801 92.743997 9.336990 -9.811156 -2.889749 0.000358 0.000635 95.514977 5.976072 -6.629068 -2.638820 -0.000016 0.000946 -0.000004 -0.000003 0.000002 -8.076744 -0.486390 -3.806074 77.273250 16.820386 -13.358325 -3.600040 0.000256 -0.003555 83.207776 9.242821 -7.891763 -2.100023 0.000309 -0.005510 85.467079 6.020870 -5.359274 -2.115759 -0.000056 -0.003684 0.000002 -0.000001 -0.000004 4.570446 11.014691 -2.160851 -0.000018 0.000010 -0.000021 10.592362 -0.524528 -2.232293 69.981271 6.566923 -4.599107 27.841852 0.000099 -0.000202 106.906647 -64.576672 80.895039 28.328838 -0.000028 0.000017 0.000021 -0.000089 0.000001 2.465894 -1.576106 2.681903 -51.191209 169.710953 19.957311 3.217809 -1.871742 1.916373 154.011258 -29.834526 6.867638 2.656106 -1.528588 1.514423 142.397491 -27.746397 36.522159 2.020888 -1.154079 1.115146 0.000003 0.000004 0.000001 9.109376 -0.517850 2.259729 86.198613 -13.586682 12.709959 3.700048 0.000158 -0.000468 87.307863 -13.653797 13.048644 2.850042 0.000212 0.000194 86.773209 -12.165726 11.502535 2.774887 -0.000019 -0.000030 0.000000 -0.000001 0.000003 9.533459 0.000236 -0.000083 89.662735 -12.547219 12.465672 3.700037 0.000182 -0.000380 90.802427 -12.431247 12.602453 2.950078 0.000171 -0.000198 90.248177 -16.705575 16.780141 2.952877 -0.000019 0.000064 -0.000002 0.000002 -0.000002 9.104585 -0.042822 -1.865222 90.125698 -12.203378 12.231851 3.150063 0.000214 -0.000089 96.030629 -12.485473 13.863171 2.950026 0.000189 -0.000071 98.952728 -14.859710 17.350414 2.644341 0.000027 0.000064 -0.000001 -0.000002 -0.000000 8.077835 -0.486729 -3.806380 80.010762 -15.258626 13.318089 3.599994 0.000204 0.014561 82.447890 -12.286921 11.217793 2.100036 0.000206 0.007550 86.392898 -11.601177 11.348224 2.125515 -0.000001 0.007514 0.000001 -0.000000 0.000001 -8.207786 -6.751667 -1.599560 -0.077001 -0.000003 0.000080 -0.000002 -44.370110 0.345938 0.153719 -0.000000 -0.000000 0.000000 -44.423679 -3.043532 -0.076700 0.000000 -0.000002 -0.000006 -8.728667 10.710559 -0.000009 -0.000000 -0.000000 -0.000001 -0.000679 9.278123 0.000000 -0.000000 -0.000000 8.207792 -6.751710 -1.599556 -0.074518 -0.000003 0.000081 -0.000002 -44.370014 0.346960 0.148822 0.000002 0.000000 -0.000001 -44.423664 -3.044403 -0.074314 0.000000 -0.000002 -0.000004 -8.728671 10.710558 0.000007 -0.000000 -0.000000 0.000000 -0.000680 9.278137 -0.000000 0.000000 -0.000001 
0.000006 104.270477 1.554256 0.000010 0.000003 -0.000113 -0.000005 10.181587 0.131522 0.000001 -0.000003 0.000084 -0.000000 9.893967 -1.470711 0.000001 0.000000 -0.000000 -0.000000 9.220802 -1.370642 0.000000 -0.000000 -0.000000 0.000001 16.740433 -2.049030 0.000000 -0.000000 -0.000000 0.000000 9.617859 1.685014 0.000000 0.000000 0.000000 0.000002 22.037384 7.501101 0.000000 -0.000000 0.000000 -4.569968 11.014880 -2.160881 0.000008 0.000001 -0.000038 -10.592874 -0.524689 -2.232014 72.256920 10.585683 -7.737556 -27.841528 0.000014 0.000555 -56.734782 116.042100 81.708269 -28.328827 0.000007 0.000022 -0.000321 -0.000045 0.000006 -2.464419 -1.573885 2.682401 -34.153029 -156.850240 20.304073 -3.215267 -1.872529 1.924644 154.305749 33.402057 15.144517 -2.654960 -1.527888 1.513074 147.036310 26.993842 -36.320378 -2.018842 -1.152008 1.108063 -0.000008 -0.000003 0.000002 -9.108382 -0.517560 2.260135 102.124708 15.833828 -19.588282 -3.700058 0.000329 0.001520 100.870658 11.797616 -14.227533 -2.850066 0.000377 -0.000241 100.330343 9.257311 -11.085638 -2.772173 -0.000002 -0.000021 -0.000002 0.000000 0.000001 -9.532600 0.000267 0.000253 93.771339 17.423138 -18.742999 -3.700068 0.000339 0.003966 93.042128 10.915520 -11.408745 -2.950060 0.000339 -0.001792 94.536116 10.300208 -11.137047 -2.946616 0.000014 -0.000159 -0.000001 -0.000001 -0.000001 -9.103706 -0.042765 -1.864873 89.959766 18.511483 -18.453542 -3.379323 0.000324 -0.000817 91.061448 8.780999 -8.962009 -2.889760 0.000360 0.000642 96.024694 5.631251 -6.305337 -2.638810 -0.000033 0.000944 -0.000002 -0.000002 0.000001 -8.076761 -0.486389 -3.806040 79.408298 17.825983 -14.711329 -3.600069 0.000267 -0.003555 82.319202 8.958727 -7.522088 -2.100010 0.000315 -0.005515 85.409316 5.582989 -4.950852 -2.115760 -0.000028 -0.003683 -0.000002 -0.000004 -0.000003 4.570446 11.014691 -2.160851 -0.000018 0.000010 -0.000021 10.592356 -0.524546 -2.232265 69.765690 13.815667 -9.655764 27.841846 0.000099 -0.000192 107.410298 -64.807362 81.668285 28.328831 -0.000029 0.000022 0.000020 -0.000088 0.000000 2.466105 -1.576151 2.681902 -18.970347 156.531052 -49.414728 3.217840 -1.871795 1.916392 160.968817 -27.351245 19.867931 2.656104 -1.528651 1.514455 141.080672 -27.445548 47.554051 2.020887 -1.154054 1.115140 0.000004 0.000002 0.000004 9.109363 -0.517843 2.259729 93.095635 -16.557010 17.449733 3.700057 0.000179 -0.000468 90.365971 -11.396025 11.485259 2.850041 0.000220 0.000198 89.009038 -8.823277 8.671335 2.774887 -0.000030 -0.000029 0.000001 -0.000001 -0.000003 9.533454 0.000230 -0.000100 93.362880 -15.358454 16.266020 3.700052 0.000202 -0.000382 94.961390 -9.683240 10.552682 2.950048 0.000213 -0.000204 95.194792 -9.888753 10.826362 2.952861 -0.000018 0.000063 0.000001 0.000000 -0.000001 9.104583 -0.042833 -1.865224 93.336502 -15.093070 15.989270 3.150043 0.000225 -0.000099 99.235142 -11.714141 13.756487 2.950027 0.000215 -0.000090 100.184224 -10.541760 12.591130 2.644320 0.000017 0.000060 0.000004 0.000000 -0.000001 8.077832 -0.486699 -3.806419 86.871373 -18.077689 17.695427 3.600017 0.000181 0.014575 85.747049 -16.480714 15.804549 2.100047 0.000194 0.007544 86.212663 -12.092625 11.775911 2.125501 -0.000017 0.007518 0.000001 0.000004 0.000001 -8.207786 -6.751667 -1.599560 -0.077001 -0.000003 0.000080 -0.000002 -44.370110 0.345938 0.153719 -0.000000 -0.000000 0.000000 -44.423679 -3.043532 -0.076700 0.000000 -0.000002 -0.000006 -8.728667 10.710559 -0.000009 -0.000000 -0.000000 -0.000001 -0.000679 9.278123 0.000000 -0.000000 -0.000000 8.207792 -6.751710 -1.599556 -0.074518 -0.000003 0.000081 -0.000002 -44.370014 0.346960 0.148822 0.000002 0.000000 -0.000001 -44.423664 -3.044403 -0.074314 0.000000 -0.000002 -0.000004 -8.728671 10.710558 0.000007 -0.000000 -0.000000 0.000000 -0.000680 9.278137 -0.000000 0.000000 -0.000001 
0.000006 104.270477 1.554256 0.000010 0.000003 -0.000113 -0.000005 10.181587 0.131522 0.000001 -0.000003 0.000084 -0.000000 9.893967 -1.470711 0.000001 0.000000 -0.000000 -0.000000 9.220802 -1.370642 0.000000 -0.000000 -0.000000 0.000001 16.740433 -2.049030 0.000000 -0.000000 -0.000000 0.000000 9.617859 1.685014 0.000000 0.000000 0.000000 0.000002 22.037384 7.501101 0.000000 -0.000000 0.000000 -4.569968 11.014880 -2.160881 0.000008 0.000001 -0.000038 -10.592881 -0.524725 -2.231954 72.021913 20.890934 -15.263837 -27.841532 0.000001 0.000537 -55.272145 111.331250 74.944954 -28.328815 0.000022 0.000024 -0.000319 -0.000043 0.000008 -2.464440 -1.573841 2.682370 -39.425696 -160.511167 10.290091 -3.215263 -1.872580 1.924644 155.343978 32.941097 11.145704 -2.654944 -1.527887 1.513082 147.284000 26.754578 -38.274649 -2.018833 -1.152001 1.108060 0.000001 0.000002 0.000002 -9.108391 -0.517555 2.260136 102.903972 16.719439 -20.956916 -3.700065 0.000323 0.001523 101.577597 12.580708 -15.359863 -2.850074 0.000394 -0.000235 101.115521 9.649765 -11.715860 -2.772187 -0.000002 -0.000020 -0.000000 0.000001 0.000000 -9.532604 0.000255 0.000246 94.191328 18.537195 -20.074329 -3.700061 0.000331 0.003972 93.161321 11.635001 -12.191017 -2.950027 0.000326 -0.001800 94.263885 10.485767 -11.284050 -2.946647 0.000014 -0.000156 -0.000004 0.000001 -0.000000 -9.103709 -0.042772 -1.864872 89.736460 19.253649 -19.121634 -3.379314 0.000325 -0.000811 91.067739 9.062893 -9.250195 -2.889749 0.000358 0.000641 95.811469 5.444176 -6.074737 -2.638816 -0.000043 0.000940 -0.000002 -0.000000 -0.000000 -8.076755 -0.486386 -3.806077 78.568513 17.763737 -14.444295 -3.600049 0.000274 -0.003550 83.018812 8.857366 -7.525658 -2.100022 0.000293 -0.005519 85.833901 5.457631 -4.871509 -2.115774 -0.000038 -0.003677 -0.000000 -0.000002 -0.000004 4.570446 11.014691 -2.160851 -0.000018 0.000010 -0.000021 10.592361 -0.524535 -2.232278 68.416338 6.355781 -4.323027 27.841845 0.000091 -0.000213 109.044660 -66.513120 85.237291 28.328846 -0.000028 0.000022 0.000020 -0.000089 0.000000 2.466224 -1.576102 2.681856 0.285232 159.785828 -82.462575 3.217855 -1.871813 1.916392 163.583837 -24.404763 31.183235 2.656107 -1.528641 1.514469 145.971046 -26.249172 45.418794 2.020895 -1.154069 1.115150 -0.000002 0.000006 0.000004 9.109414 -0.517822 2.259746 96.679934 -19.617751 21.979030 3.700056 0.000185 -0.000458 94.521000 -13.253915 14.350695 2.850063 0.000204 0.000202 92.633840 -10.222440 10.699438 2.774870 -0.000030 -0.000025 0.000002 0.000001 0.000001 9.533491 0.000236 -0.000081 95.615354 -18.689882 20.568346 3.700057 0.000207 -0.000370 97.867916 -11.125070 12.752466 2.950060 0.000219 -0.000199 98.292706 -10.208331 11.796911 2.952866 -0.000029 0.000071 0.000003 0.000003 -0.000000 9.104605 -0.042815 -1.865217 96.220235 -18.425998 20.502963 3.150063 0.000224 -0.000087 101.755632 -13.535506 16.605211 2.950025 0.000211 -0.000075 102.246518 -10.839863 13.425817 2.644328 0.000046 0.000054 0.000003 0.000000 -0.000001 8.077866 -0.486693 -3.806398 88.702724 -20.554515 20.697601 3.600027 0.000199 0.014582 87.506205 -18.126612 17.878037 2.100056 0.000196 0.007553 87.076586 -12.848329 12.676628 2.125499 -0.000016 0.007513 0.000001 0.000004 -0.000002 -8.207786 -6.751667 -1.599560 -0.077001 -0.000003 0.000080 -0.000002 -44.370110 0.345938 0.153719 -0.000000 -0.000000 0.000000 -44.423679 -3.043532 -0.076700 0.000000 -0.000002 -0.000006 -8.728667 10.710559 -0.000009 -0.000000 -0.000000 -0.000001 -0.000679 9.278123 0.000000 -0.000000 -0.000000 8.207792 -6.751710 -1.599556 -0.074518 -0.000003 0.000081 -0.000002 -44.370014 0.346960 0.148822 0.000002 0.000000 -0.000001 -44.423664 -3.044403 -0.074314 0.000000 -0.000002 -0.000004 -8.728671 10.710558 0.000007 -0.000000 -0.000000 0.000000 -0.000680 9.278137 -0.000000 0.000000 -0.000001 
